<svg preserveAspectRatio="xMidYMid meet" overflow="visible" viewBox="0 0 358.372 115" fill="none" xmlns="http://www.w3.org/2000/svg">
<g id="CC Logo" clip-path="url(#clip0_0_4)">
<g id="Vector">
<path d="M24.1291 52.893C17.0746 52.893 11.2782 50.5129 6.73998 45.7528C2.24666 40.9464 0 34.9385 0 27.7289C0 20.5656 2.26913 14.5808 6.80738 9.77445C11.3456 4.9681 17.142 2.56493 24.1965 2.56493C29.1841 2.56493 33.4977 3.81273 37.1373 6.30834C40.8218 8.75773 43.5403 12.0159 45.2927 16.0828L39.1593 19.4103C38.0809 16.4525 36.2162 14.0493 33.5651 12.2007C30.9141 10.3059 27.7912 9.35852 24.1965 9.35852C19.2539 9.35852 15.165 11.0916 11.9298 14.5577C8.73951 18.0238 7.14438 22.4142 7.14438 27.7289C7.14438 33.0899 8.73951 37.5034 11.9298 40.9695C15.165 44.3894 19.2539 46.0994 24.1965 46.0994C27.8811 46.0994 31.1612 45.0364 34.0369 42.9105C36.9576 40.7384 38.9122 37.8038 39.9007 34.1066L46.1689 37.2954C44.6412 41.9169 41.9002 45.6834 37.9461 48.595C33.992 51.4603 29.3863 52.893 24.1291 52.893Z" fill="var(--fill-0, #121212)"/>
<path d="M52.1296 51.9918V0H58.8695V22.7377H60.2175C60.8017 20.6119 61.9699 18.8788 63.7223 17.5386C65.5197 16.1521 67.6765 15.4589 70.1927 15.4589C74.057 15.4589 77.09 16.7298 79.2917 19.2716C81.4934 21.7672 82.5943 24.8174 82.5943 28.4222V51.9918H75.8543V30.4325C75.8543 28.0293 75.0455 26.0421 73.4279 24.4708C71.8552 22.8533 69.9231 22.0445 67.6315 22.0445C65.0703 22.0445 62.9585 22.9226 61.2959 24.6788C59.6783 26.3887 58.8695 28.5608 58.8695 31.1951V51.9918H52.1296Z" fill="var(--fill-0, #121212)"/>
<path d="M100.645 52.893C97.0057 52.893 94.0177 51.83 91.6812 49.7041C89.3896 47.5782 88.2438 44.8285 88.2438 41.4548C88.2438 38.1273 89.3896 35.4468 91.6812 33.4134C94.0177 31.3337 97.0956 30.2939 100.915 30.2939H111.766V29.3234C111.766 27.0588 111.025 25.1871 109.542 23.7082C108.104 22.2294 106.127 21.4899 103.611 21.4899C101.319 21.4899 99.4995 22.0907 98.1515 23.2923C96.8035 24.4939 95.9947 25.9035 95.7251 27.521L89.7266 25.7879C90.4904 22.5991 92.0856 20.0804 94.5119 18.2318C96.9833 16.3832 100.016 15.4589 103.611 15.4589C108.239 15.4589 111.856 16.8222 114.462 19.5489C117.068 22.2294 118.371 25.4875 118.371 29.3234V44.6436C118.371 45.7528 118.956 46.3073 120.124 46.3073H121.202V51.9918H117.832C116.125 51.9918 114.799 51.5065 113.856 50.536C112.912 49.5655 112.44 48.3177 112.44 46.7926V45.3368H111.092C110.598 47.6476 109.43 49.4962 107.588 50.8826C105.745 52.2228 103.431 52.893 100.645 52.893ZM95.0511 41.3161C95.0511 43.0723 95.7027 44.4819 97.0057 45.5448C98.3537 46.5615 99.9938 47.0699 101.926 47.0699C105.206 47.0699 107.655 46.0532 109.273 44.0197C110.935 41.9862 111.766 39.56 111.766 36.7409V35.7703H101.656C99.5894 35.7703 97.9718 36.2787 96.8035 37.2954C95.6353 38.2659 95.0511 39.6062 95.0511 41.3161Z" fill="var(--fill-0, #121212)"/>
<path d="M125.951 51.9918V16.3601H132.691V22.7377H134.039C134.578 20.7043 135.701 18.9943 137.409 17.6079C139.116 16.1752 141.228 15.4589 143.744 15.4589C146.44 15.4589 148.71 16.1521 150.552 17.5386C152.394 18.8788 153.675 20.6119 154.394 22.7377H155.876C156.595 20.6119 157.786 18.8788 159.449 17.5386C161.111 16.1521 163.2 15.4589 165.717 15.4589C169.446 15.4589 172.389 16.7067 174.546 19.2023C176.703 21.6979 177.781 24.7712 177.781 28.4222V51.9918H171.041V30.4325C171.041 27.8907 170.345 25.8572 168.952 24.3321C167.559 22.8071 165.672 22.0445 163.29 22.0445C160.954 22.0445 159.022 22.8764 157.494 24.5401C156.011 26.1576 155.27 28.376 155.27 31.1951V51.9918H148.53V30.3632C148.53 27.8676 147.788 25.8572 146.306 24.3321C144.823 22.8071 142.936 22.0445 140.644 22.0445C138.307 22.0445 136.398 22.8995 134.915 24.6094C133.432 26.3194 132.691 28.5146 132.691 31.1951V51.9918H125.951Z" fill="var(--fill-0, #121212)"/>
<path d="M199.968 52.893C194.801 52.893 190.599 51.1368 187.364 47.6245C184.129 44.0659 182.511 39.5137 182.511 33.968C182.511 28.4684 184.151 24.0086 187.432 20.5887C190.757 17.1688 194.89 15.4589 199.833 15.4589C204.911 15.4589 208.955 17.1919 211.965 20.6581C214.976 24.078 216.391 28.2373 216.211 33.1361L216.076 36.4636H189.184C189.588 39.6524 190.712 42.1711 192.554 44.0197C194.441 45.8683 196.912 46.7926 199.968 46.7926C204.237 46.7926 207.472 45.0364 209.674 41.5241L214.661 44.8516C213.223 47.3472 211.246 49.3113 208.73 50.744C206.214 52.1766 203.293 52.893 199.968 52.893ZM189.319 30.6405H209.674C209.584 28.0524 208.618 25.8572 206.775 24.0549C204.933 22.2525 202.619 21.3513 199.833 21.3513C197.002 21.3513 194.666 22.2063 192.824 23.9162C191.026 25.58 189.858 27.8214 189.319 30.6405Z" fill="var(--fill-0, #121212)"/>
<path d="M220.954 51.9918V0H227.694V51.9918H220.954Z" fill="var(--fill-0, #121212)"/>
<path d="M249.831 52.893C244.663 52.893 240.462 51.1368 237.227 47.6245C233.992 44.0659 232.374 39.5137 232.374 33.968C232.374 28.4684 234.014 24.0086 237.294 20.5887C240.619 17.1688 244.753 15.4589 249.696 15.4589C254.773 15.4589 258.817 17.1919 261.828 20.6581C264.838 24.078 266.254 28.2373 266.074 33.1361L265.939 36.4636H239.047C239.451 39.6524 240.574 42.1711 242.417 44.0197C244.304 45.8683 246.775 46.7926 249.831 46.7926C254.099 46.7926 257.335 45.0364 259.536 41.5241L264.524 44.8516C263.086 47.3472 261.109 49.3113 258.593 50.744C256.076 52.1766 253.156 52.893 249.831 52.893ZM239.181 30.6405H259.536C259.446 28.0524 258.48 25.8572 256.638 24.0549C254.796 22.2525 252.482 21.3513 249.696 21.3513C246.865 21.3513 244.529 22.2063 242.686 23.9162C240.889 25.58 239.721 27.8214 239.181 30.6405Z" fill="var(--fill-0, #121212)"/>
<path d="M286.925 52.893C281.623 52.893 277.242 51.1368 273.782 47.6245C270.367 44.1121 268.659 39.6293 268.659 34.1759C268.659 28.7226 270.367 24.2397 273.782 20.7274C277.242 17.2151 281.623 15.4589 286.925 15.4589C292.137 15.4589 296.473 17.2382 299.933 20.7967C303.438 24.309 305.19 28.7688 305.19 34.1759C305.19 39.6293 303.438 44.1121 299.933 47.6245C296.473 51.1368 292.137 52.893 286.925 52.893ZM275.534 34.1759C275.534 37.8731 276.59 40.8771 278.702 43.1878C280.859 45.4524 283.6 46.5846 286.925 46.5846C290.25 46.5846 292.968 45.4524 295.08 43.1878C297.237 40.8771 298.315 37.8731 298.315 34.1759C298.315 30.5712 297.237 27.6134 295.08 25.3027C292.923 22.9457 290.205 21.7672 286.925 21.7672C283.645 21.7672 280.926 22.9457 278.769 25.3027C276.613 27.6134 275.534 30.5712 275.534 34.1759Z" fill="var(--fill-0, #121212)"/>
<path d="M310.471 51.9918V16.3601H317.211V22.7377H318.559C319.143 20.7043 320.311 18.9943 322.064 17.6079C323.816 16.1752 325.951 15.4589 328.467 15.4589C332.286 15.4589 335.274 16.7298 337.431 19.2716C339.633 21.7672 340.734 24.8174 340.734 28.4222V51.9918H333.994V30.4325C333.994 27.9831 333.207 25.9728 331.635 24.4015C330.107 22.8302 328.197 22.0445 325.906 22.0445C323.344 22.0445 321.255 22.9226 319.637 24.6788C318.02 26.3887 317.211 28.5608 317.211 31.1951V51.9918H310.471Z" fill="var(--fill-0, #121212)"/>
<path d="M334.243 62.107C341.297 62.107 347.094 64.4871 351.632 69.2472C356.125 74.0536 358.372 80.0615 358.372 87.2711C358.372 94.4344 356.103 100.419 351.565 105.226C347.026 110.032 341.23 112.435 334.175 112.435C329.188 112.435 324.874 111.187 321.235 108.692C317.55 106.242 314.832 102.984 313.079 98.9172L319.213 95.5897C320.291 98.5475 322.156 100.951 324.807 102.799C327.458 104.694 330.581 105.641 334.175 105.641C339.118 105.641 343.207 103.908 346.442 100.442C349.633 96.9762 351.228 92.5858 351.228 87.2711C351.228 81.9101 349.633 77.4966 346.442 74.0305C343.207 70.6106 339.118 68.9006 334.175 68.9006C330.491 68.9006 327.211 69.9636 324.335 72.0895C321.414 74.2616 319.46 77.1962 318.471 80.8934L312.203 77.7046C313.731 73.0831 316.472 69.3166 320.426 66.405C324.38 63.5397 328.986 62.107 334.243 62.107Z" fill="var(--fill-0, #121212)"/>
<path d="M289.999 62.107C295.301 62.107 299.682 63.8632 303.142 67.3755C306.557 70.8879 308.264 75.3707 308.264 80.8241C308.264 86.2774 306.557 90.7603 303.142 94.2726C299.682 97.7849 295.301 99.5411 289.999 99.5411C284.787 99.5411 280.451 97.7618 276.991 94.2033C273.486 90.691 271.734 86.2312 271.734 80.8241C271.734 75.3707 273.486 70.8879 276.991 67.3755C280.451 63.8632 284.787 62.107 289.999 62.107ZM301.39 80.8241C301.39 77.1269 300.334 74.1229 298.222 71.8122C296.065 69.5476 293.324 68.4154 289.999 68.4154C286.674 68.4154 283.956 69.5476 281.844 71.8122C279.687 74.1229 278.609 77.1269 278.609 80.8241C278.609 84.4288 279.687 87.3866 281.844 89.6973C284.001 92.0543 286.719 93.2328 289.999 93.2328C293.279 93.2328 295.998 92.0543 298.154 89.6973C300.311 87.3866 301.39 84.4288 301.39 80.8241Z" fill="var(--fill-0, #121212)"/>
<path d="M266.318 63.0082V115H259.578V63.0082H266.318Z" fill="var(--fill-0, #121212)"/>
<path d="M252.067 63.0082V115H245.327V63.0082H252.067Z" fill="var(--fill-0, #121212)"/>
<path d="M222.516 62.107C227.683 62.107 231.884 63.8632 235.119 67.3755C238.355 70.9341 239.972 75.4862 239.972 81.032C239.972 86.5316 238.332 90.9913 235.052 94.4113C231.727 97.8312 227.593 99.5411 222.65 99.5411C217.573 99.5411 213.529 97.808 210.518 94.3419C207.508 90.922 206.092 86.7627 206.272 81.8639L206.407 78.5364L233.3 78.5364C232.895 75.3476 231.772 72.8289 229.93 70.9803C228.042 69.1317 225.571 68.2074 222.516 68.2074C218.247 68.2074 215.012 69.9636 212.81 73.4759L207.822 70.1484C209.26 67.6528 211.237 65.6887 213.754 64.256C216.27 62.8234 219.19 62.107 222.516 62.107ZM233.165 84.3595H212.81C212.9 86.9475 213.866 89.1428 215.708 90.9451C217.55 92.7475 219.864 93.6487 222.65 93.6487C225.481 93.6487 227.818 92.7937 229.66 91.0838C231.457 89.42 232.626 87.1786 233.165 84.3595Z" fill="var(--fill-0, #121212)"/>
<path d="M184.95 62.107C190.207 62.107 194.543 63.8632 197.958 67.3755C201.328 70.9341 203.013 75.4169 203.013 80.8241C203.013 86.185 201.305 90.6447 197.89 94.2033C194.431 97.7618 190.117 99.5411 184.95 99.5411C181.31 99.5411 178.075 98.6168 175.244 96.7682C172.368 94.9658 170.256 92.3547 168.908 88.9348L174.705 85.8153C175.334 87.8487 176.592 89.5818 178.479 91.0145C180.321 92.4471 182.478 93.1634 184.95 93.1634C188.185 93.1634 190.858 92.0081 192.97 89.6973C195.082 87.3866 196.138 84.4288 196.138 80.8241C196.138 77.1269 195.082 74.146 192.97 71.8815C190.813 69.617 188.14 68.4847 184.95 68.4847C182.478 68.4847 180.277 69.1548 178.344 70.495C176.412 71.8353 175.019 73.7532 174.166 76.2488L168.437 73.4759C169.74 69.7325 171.874 66.8903 174.84 64.9492C177.76 63.0544 181.13 62.107 184.95 62.107Z" fill="var(--fill-0, #121212)"/>
<path d="M150.168 63.0082C152.953 63.0082 155.223 63.817 156.975 65.4345C158.727 67.052 159.604 69.4552 159.604 72.644V92.7475H165.67V98.6399H159.469V106.681H152.864V98.6399H142.551V92.7475L152.864 92.7475V72.9906C152.864 70.4488 151.673 69.1779 149.291 69.1779H143.023V63.0082H150.168Z" fill="var(--fill-0, #121212)"/>
<path d="M136.541 63.0082V98.6399H129.801V63.0082H136.541ZM136.608 104.879V113.059L129.801 113.059V104.879H136.608Z" fill="var(--fill-0, #121212)"/>
<path d="M113.338 63.0082L125.065 97.7387V98.6399H118.123L108.418 69.1086H107.002L97.6337 98.6399H90.5567V97.7387L102.284 63.0082H113.338Z" fill="var(--fill-0, #121212)"/>
<path d="M71.4846 62.107C76.6519 62.107 80.8532 63.8632 84.0884 67.3755C87.3236 70.9341 88.9412 75.4862 88.9412 81.032C88.9412 86.5316 87.3011 90.9913 84.021 94.4112C80.6959 97.8311 76.5621 99.5411 71.6194 99.5411C66.542 99.5411 62.498 97.808 59.4874 94.3419C56.4769 90.922 55.0615 86.7627 55.2413 81.8639L55.3761 78.5364L82.2686 78.5364C81.8642 75.3476 80.7409 72.8289 78.8986 70.9803C77.0114 69.1317 74.5401 68.2074 71.4846 68.2074C67.216 68.2074 63.9808 69.9635 61.779 73.4759L56.7915 70.1484C58.2293 67.6528 60.2064 65.6887 62.7226 64.256C65.2389 62.8233 68.1596 62.107 71.4846 62.107ZM82.1338 84.3595H61.779C61.8689 86.9475 62.835 89.1427 64.6772 90.9451C66.5195 92.7475 68.8336 93.6487 71.6194 93.6487C74.4502 93.6487 76.7867 92.7937 78.629 91.0838C80.4263 89.42 81.5946 87.1786 82.1338 84.3595Z" fill="var(--fill-0, #121212)"/>
</g>
</g>
<defs>
<clipPath id="clip0_0_4">
<rect width="358.372" height="115" fill="white"/>
</clipPath>
</defs>
</svg>
