<svg preserveAspectRatio="none" width="100%" height="100%" overflow="visible" style="display: block;" viewBox="0 0 7.36396 51" fill="none" xmlns="http://www.w3.org/2000/svg">
<path id="Vector 4" d="M3.32843 50.8536C3.52369 51.0488 3.84027 51.0488 4.03553 50.8536L7.21751 47.6716C7.41278 47.4763 7.41278 47.1597 7.21751 46.9645C7.02225 46.7692 6.70567 46.7692 6.51041 46.9645L3.68198 49.7929L0.853554 46.9645C0.658291 46.7692 0.341709 46.7692 0.146447 46.9645C-0.0488155 47.1597 -0.0488155 47.4763 0.146447 47.6716L3.32843 50.8536ZM4.03553 0.146447C3.84027 -0.0488155 3.52369 -0.0488155 3.32843 0.146447L0.146447 3.32843C-0.0488155 3.52369 -0.0488155 3.84027 0.146447 4.03553C0.341709 4.2308 0.658291 4.2308 0.853554 4.03553L3.68198 1.20711L6.51041 4.03553C6.70567 4.2308 7.02225 4.2308 7.21751 4.03553C7.41278 3.84027 7.41278 3.52369 7.21751 3.32843L4.03553 0.146447ZM3.68198 50.5H4.18198V0.5H3.68198H3.18198V50.5H3.68198Z" fill="var(--stroke-0, black)" fill-opacity="0.2"/>
</svg>
