<svg preserveAspectRatio="none" width="100%" height="100%" overflow="visible" style="display: block;" viewBox="0 0 1488 103" fill="none" xmlns="http://www.w3.org/2000/svg">
<g id="Frame 193403">
<path id="Vector 1" d="M200.354 0.146447C200.158 -0.0488155 199.842 -0.0488155 199.646 0.146447L196.464 3.32843C196.269 3.52369 196.269 3.84027 196.464 4.03553C196.66 4.2308 196.976 4.2308 197.172 4.03553L200 1.20711L202.828 4.03553C203.024 4.2308 203.34 4.2308 203.536 4.03553C203.731 3.84027 203.731 3.52369 203.536 3.32843L200.354 0.146447ZM743.646 102.854C743.842 103.049 744.158 103.049 744.354 102.854L747.536 99.6716C747.731 99.4763 747.731 99.1597 747.536 98.9645C747.34 98.7692 747.024 98.7692 746.828 98.9645L744 101.793L741.172 98.9645C740.976 98.7692 740.66 98.7692 740.464 98.9645C740.269 99.1597 740.269 99.4763 740.464 99.6716L743.646 102.854ZM200 0.5H199.5V39.6044H200H200.5V0.5H200ZM215 54.6043V55.1043H729V54.6043V54.1043H215V54.6043ZM744 69.6043H743.5V102.5H744H744.5V69.6043H744ZM729 54.6043V55.1043C737.008 55.1043 743.5 61.5962 743.5 69.6043H744H744.5C744.5 61.0439 737.56 54.1043 729 54.1043V54.6043ZM200 39.6044H199.5C199.5 48.1648 206.44 55.1043 215 55.1043V54.6043V54.1043C206.992 54.1043 200.5 47.6125 200.5 39.6044H200Z" fill="var(--stroke-0, black)" fill-opacity="0.2"/>
<path id="Vector 2" d="M1287.65 0.146447C1287.84 -0.0488155 1288.16 -0.0488155 1288.35 0.146447L1291.54 3.32843C1291.73 3.52369 1291.73 3.84027 1291.54 4.03553C1291.34 4.2308 1291.02 4.2308 1290.83 4.03553L1288 1.20711L1285.17 4.03553C1284.98 4.2308 1284.66 4.2308 1284.46 4.03553C1284.27 3.84027 1284.27 3.52369 1284.46 3.32843L1287.65 0.146447ZM1288 0.5H1288.5V39.6044H1288H1287.5V0.5H1288ZM1273 54.6043V55.1043H759V54.6043V54.1043H1273V54.6043ZM744 69.6043H744.5V102.5H744H743.5V69.6043H744ZM759 54.6043V55.1043C750.992 55.1043 744.5 61.5962 744.5 69.6043H744H743.5C743.5 61.0439 750.44 54.1043 759 54.1043V54.6043ZM1288 39.6044H1288.5C1288.5 48.1648 1281.56 55.1043 1273 55.1043V54.6043V54.1043C1281.01 54.1043 1287.5 47.6125 1287.5 39.6044H1288Z" fill="var(--stroke-0, black)" fill-opacity="0.2"/>
</g>
</svg>
